<?xml version="1.0" encoding="UTF-8" standalone="no"?>
<!-- Created with Inkscape (http://www.inkscape.org/) -->

<svg
   width="4.4610715in"
   height="5.0315146in"
   viewBox="0 0 113.31122 127.80047"
   version="1.1"
   id="svg5"
   inkscape:version="1.1 (c68e22c387, 2021-05-23)"
   sodipodi:docname="Flag.svg"
   xmlns:inkscape="http://www.inkscape.org/namespaces/inkscape"
   xmlns:sodipodi="http://sodipodi.sourceforge.net/DTD/sodipodi-0.dtd"
   xmlns="http://www.w3.org/2000/svg"
   xmlns:svg="http://www.w3.org/2000/svg">
  <sodipodi:namedview
     id="namedview7"
     pagecolor="#ffffff"
     bordercolor="#666666"
     borderopacity="1.0"
     inkscape:pageshadow="2"
     inkscape:pageopacity="0.0"
     inkscape:pagecheckerboard="0"
     inkscape:document-units="mm"
     showgrid="false"
     units="mm"
     inkscape:snap-path-clip="false"
     inkscape:snap-path-mask="false"
     objecttolerance="20"
     fit-margin-top="0"
     fit-margin-left="0"
     fit-margin-right="0"
     fit-margin-bottom="0"
     inkscape:zoom="0.72337262"
     inkscape:cx="-194.22908"
     inkscape:cy="333.85284"
     inkscape:window-width="1920"
     inkscape:window-height="1001"
     inkscape:window-x="-9"
     inkscape:window-y="-9"
     inkscape:window-maximized="1"
     inkscape:current-layer="layer1" />
  <defs
     id="defs2" />
  <g
     inkscape:label="Sloj 1"
     inkscape:groupmode="layer"
     id="layer1"
     transform="translate(-97.503974,-60.214618)">
    <path
       style="fill:#ef5350;fill-opacity:1;stroke:#000000;stroke-width:0.264583px;stroke-linecap:butt;stroke-linejoin:miter;stroke-opacity:1"
       d="m 210.6798,111.92364 c 0,0 -11.16023,-9.40143 -17.92241,-9.50985 -6.92398,-0.11101 -11.7816,9.99536 -18.65394,9.14409 -6.18149,-0.7657 -8.04851,-11.676495 -14.26478,-12.070196 -8.26869,-0.523689 -12.56478,13.375126 -20.84853,13.533246 -7.37967,0.14086 -11.65604,-11.84443 -19.0197,-11.33866 -3.89421,0.26747 -9.14409,7.31526 -9.14409,7.31526 0,0 -10.63517,-13.051331 -10.60714,-20.848517 0.0276,-7.688721 4.01624,-16.523301 10.60714,-20.482758 28.42903,-17.078637 99.48769,1.097291 99.48769,1.097291 z"
       id="path2789"
       sodipodi:nodetypes="cssssscsscc" />
    <path
       style="fill:none;stroke:#000000;stroke-width:0.264583px;stroke-linecap:butt;stroke-linejoin:miter;stroke-opacity:0"
       d="m 210.31404,150.69458 c 0,0 -19.28403,10.42115 -27.79803,6.21798 -6.50551,-3.21162 -2.32344,-17.2784 -9.14409,-19.75123 -6.97304,-2.52808 -12.69989,9.47579 -20.11699,9.50985 -6.98251,0.0321 -12.03856,-8.91971 -19.01971,-8.77833 -5.88772,0.11924 -9.91063,8.96318 -15.72783,8.0468 -7.49418,-1.18055 -14.57942,-8.65964 -16.0936,-16.09359 -1.49569,-7.34317 8.41256,-20.84853 8.41256,-20.84853"
       id="path2791"
       sodipodi:nodetypes="cssssssc" />
    <path
       style="fill:#0d47a1;fill-opacity:1;stroke:#000000;stroke-width:0.264583px;stroke-linecap:butt;stroke-linejoin:miter;stroke-opacity:1"
       d="m 118.50739,145.93965 c 0,0 -12.28633,12.7366 -11.33867,20.48276 1.15235,9.41928 10.30936,18.07813 19.38547,20.84852 10.77679,3.2895 21.65141,-7.76974 32.91871,-7.68103 6.03214,0.0475 11.53408,4.73219 17.55665,4.38916 6.24006,-0.35542 11.33514,-7.18164 17.55665,-6.58374 6.26515,0.60209 16.0936,9.87561 16.0936,9.87561 l -0.36576,-36.57635"
       id="path2845"
       sodipodi:nodetypes="cssssscc" />
    <path
       style="opacity:1;fill:#0d47a1;fill-opacity:1;stroke:none;stroke-width:0.265;stroke-linecap:butt;stroke-linejoin:miter;stroke-miterlimit:4;stroke-dasharray:none;stroke-opacity:1"
       d="m 118.50739,145.93965 c 0,0 10.8999,-11.91588 18.28817,-12.80172 10.65552,-1.27758 19.26079,11.72162 29.99261,11.70443 8.64866,-0.0139 15.58554,-10.78027 24.1404,-9.50985 8.15536,1.2111 19.38547,15.36207 19.38547,15.36207 z"
       id="path4178"
       sodipodi:nodetypes="cssscc" />
    <path
       style="fill:none;stroke:#000000;stroke-width:0.264583px;stroke-linecap:butt;stroke-linejoin:miter;stroke-opacity:1"
       d="m 110.82635,108.99753 c 0,0 -13.818578,10.27042 -13.167484,17.55666 0.844611,9.45185 20.848524,19.38546 20.848524,19.38546"
       id="path5969"
       sodipodi:nodetypes="csc" />
  </g>
</svg>
