<svg width="100" height="129" viewBox="0 0 100 129" fill="none" xmlns="http://www.w3.org/2000/svg">
<path d="M19.4043 107.05L17.8398 108.676V113H16.1523V100.203H17.8398V106.531L23.5264 100.203H25.5654L20.5293 105.854L25.9609 113H23.9395L19.4043 107.05ZM37 107.015C37 108.269 36.7891 109.364 36.3672 110.302C35.9453 111.233 35.3477 111.945 34.5742 112.438C33.8008 112.93 32.8984 113.176 31.8672 113.176C30.8594 113.176 29.9658 112.93 29.1865 112.438C28.4072 111.939 27.8008 111.233 27.3672 110.319C26.9395 109.399 26.7197 108.336 26.708 107.129V106.206C26.708 104.976 26.9219 103.889 27.3496 102.945C27.7773 102.002 28.3809 101.281 29.1602 100.783C29.9453 100.279 30.8418 100.027 31.8496 100.027C32.875 100.027 33.7773 100.276 34.5566 100.774C35.3418 101.267 35.9453 101.984 36.3672 102.928C36.7891 103.865 37 104.958 37 106.206V107.015ZM35.3213 106.188C35.3213 104.671 35.0166 103.508 34.4072 102.699C33.7979 101.885 32.9453 101.478 31.8496 101.478C30.7832 101.478 29.9424 101.885 29.3271 102.699C28.7178 103.508 28.4043 104.633 28.3867 106.074V107.015C28.3867 108.485 28.6943 109.643 29.3096 110.486C29.9307 111.324 30.7832 111.743 31.8672 111.743C32.957 111.743 33.8008 111.348 34.3984 110.557C34.9961 109.76 35.3037 108.62 35.3213 107.138V106.188ZM41.7109 100.203L45.8945 110.645L50.0781 100.203H52.2666V113H50.5791V108.017L50.7373 102.638L46.5361 113H45.2441L41.0518 102.664L41.2188 108.017V113H39.5312V100.203H41.7109ZM56.9336 107.99V113H55.2461V100.203H59.9658C61.3662 100.203 62.4619 100.561 63.2529 101.275C64.0498 101.99 64.4482 102.937 64.4482 104.114C64.4482 105.356 64.0586 106.314 63.2793 106.988C62.5059 107.656 61.3955 107.99 59.9482 107.99H56.9336ZM56.9336 106.61H59.9658C60.8682 106.61 61.5596 106.399 62.04 105.978C62.5205 105.55 62.7607 104.935 62.7607 104.132C62.7607 103.37 62.5205 102.761 62.04 102.304C61.5596 101.847 60.9004 101.609 60.0625 101.592H56.9336V106.61ZM72.4551 109.66H67.0938L65.8896 113H64.1494L69.0361 100.203H70.5127L75.4082 113H73.6768L72.4551 109.66ZM67.6035 108.271H71.9541L69.7744 102.286L67.6035 108.271ZM80.9014 107.296C79.4541 106.88 78.3994 106.37 77.7373 105.767C77.0811 105.157 76.7529 104.407 76.7529 103.517C76.7529 102.509 77.1543 101.677 77.957 101.021C78.7656 100.358 79.8145 100.027 81.1035 100.027C81.9824 100.027 82.7646 100.197 83.4502 100.537C84.1416 100.877 84.6748 101.346 85.0498 101.943C85.4307 102.541 85.6211 103.194 85.6211 103.903H83.9248C83.9248 103.13 83.6787 102.523 83.1865 102.084C82.6943 101.639 82 101.416 81.1035 101.416C80.2715 101.416 79.6211 101.601 79.1523 101.97C78.6895 102.333 78.458 102.84 78.458 103.49C78.458 104.012 78.6777 104.454 79.1172 104.817C79.5625 105.175 80.3154 105.503 81.376 105.802C82.4424 106.101 83.2744 106.432 83.8721 106.795C84.4756 107.152 84.9209 107.571 85.208 108.052C85.501 108.532 85.6475 109.098 85.6475 109.748C85.6475 110.785 85.2432 111.617 84.4346 112.244C83.626 112.865 82.5449 113.176 81.1914 113.176C80.3125 113.176 79.4922 113.009 78.7305 112.675C77.9688 112.335 77.3799 111.872 76.9639 111.286C76.5537 110.7 76.3486 110.035 76.3486 109.291H78.0449C78.0449 110.064 78.3291 110.677 78.8975 111.128C79.4717 111.573 80.2363 111.796 81.1914 111.796C82.082 111.796 82.7646 111.614 83.2393 111.251C83.7139 110.888 83.9512 110.393 83.9512 109.766C83.9512 109.139 83.7314 108.655 83.292 108.315C82.8525 107.97 82.0557 107.63 80.9014 107.296Z" fill="#0065A3"/>
<path d="M19.4043 107.05L20.1996 106.444L19.4925 105.516L18.6837 106.356L19.4043 107.05ZM17.8398 108.676L17.1192 107.982L16.8398 108.273V108.676H17.8398ZM17.8398 113V114H18.8398V113H17.8398ZM16.1523 113H15.1523V114H16.1523V113ZM16.1523 100.203V99.2031H15.1523V100.203H16.1523ZM17.8398 100.203H18.8398V99.2031H17.8398V100.203ZM17.8398 106.531H16.8398V109.14L18.5837 107.2L17.8398 106.531ZM23.5264 100.203V99.2031H23.0805L22.7826 99.5347L23.5264 100.203ZM25.5654 100.203L26.312 100.868L27.796 99.2031H25.5654V100.203ZM20.5293 105.854L19.7827 105.189L19.2348 105.804L19.7332 106.46L20.5293 105.854ZM25.9609 113V114H27.9772L26.757 112.395L25.9609 113ZM23.9395 113L23.1441 113.606L23.4443 114H23.9395V113ZM18.6837 106.356L17.1192 107.982L18.5605 109.369L20.1249 107.743L18.6837 106.356ZM16.8398 108.676V113H18.8398V108.676H16.8398ZM17.8398 112H16.1523V114H17.8398V112ZM17.1523 113V100.203H15.1523V113H17.1523ZM16.1523 101.203H17.8398V99.2031H16.1523V101.203ZM16.8398 100.203V106.531H18.8398V100.203H16.8398ZM18.5837 107.2L24.2702 100.872L22.7826 99.5347L17.096 105.863L18.5837 107.2ZM23.5264 101.203H25.5654V99.2031H23.5264V101.203ZM24.8189 99.5378L19.7827 105.189L21.2759 106.52L26.312 100.868L24.8189 99.5378ZM19.7332 106.46L25.1648 113.605L26.757 112.395L21.3254 105.249L19.7332 106.46ZM25.9609 112H23.9395V114H25.9609V112ZM24.7348 112.394L20.1996 106.444L18.609 107.656L23.1441 113.606L24.7348 112.394ZM36.3672 110.302L37.2781 110.714L37.2791 110.712L36.3672 110.302ZM29.1865 112.438L28.648 113.28L28.6525 113.283L29.1865 112.438ZM27.3672 110.319L26.4604 110.741L26.4637 110.748L27.3672 110.319ZM26.708 107.129H25.708L25.7081 107.139L26.708 107.129ZM29.1602 100.783L29.6987 101.626L29.7003 101.625L29.1602 100.783ZM34.5566 100.774L34.0181 101.617L34.0255 101.622L34.5566 100.774ZM36.3672 102.928L35.4543 103.336L35.4553 103.338L36.3672 102.928ZM34.4072 102.699L33.6065 103.298L33.6086 103.301L34.4072 102.699ZM29.3271 102.699L28.5292 102.096L28.5285 102.097L29.3271 102.699ZM28.3867 106.074L27.3867 106.062V106.074H28.3867ZM29.3096 110.486L28.5015 111.076L28.5062 111.082L29.3096 110.486ZM34.3984 110.557L35.1963 111.159L35.1984 111.157L34.3984 110.557ZM35.3213 107.138L36.3213 107.15V107.138H35.3213ZM36 107.015C36 108.157 35.8078 109.108 35.4553 109.891L37.2791 110.712C37.7703 109.62 38 108.38 38 107.015H36ZM35.4562 109.889C35.1049 110.665 34.6283 111.218 34.0373 111.594L35.1111 113.281C36.067 112.673 36.7857 111.802 37.2781 110.714L35.4562 109.889ZM34.0373 111.594C33.4438 111.972 32.7327 112.176 31.8672 112.176V114.176C33.0642 114.176 34.1577 113.888 35.1111 113.281L34.0373 111.594ZM31.8672 112.176C31.0301 112.176 30.3252 111.974 29.7205 111.592L28.6525 113.283C29.6065 113.885 30.6887 114.176 31.8672 114.176V112.176ZM29.725 111.595C29.1185 111.207 28.6317 110.652 28.2707 109.891L26.4637 110.748C26.9699 111.815 27.6959 112.672 28.648 113.28L29.725 111.595ZM28.274 109.898C27.9166 109.129 27.7186 108.211 27.708 107.119L25.7081 107.139C25.7209 108.461 25.9623 109.67 26.4604 110.741L28.274 109.898ZM27.708 107.129V106.206H25.708V107.129H27.708ZM27.708 106.206C27.708 105.092 27.9015 104.15 28.2604 103.358L26.4389 102.532C25.9423 103.628 25.708 104.86 25.708 106.206H27.708ZM28.2604 103.358C28.6181 102.569 29.1015 102.007 29.6987 101.626L28.6216 99.9406C27.6602 100.555 26.9366 101.435 26.4389 102.532L28.2604 103.358ZM29.7003 101.625C30.3113 101.233 31.0173 101.027 31.8496 101.027V99.0273C30.6663 99.0273 29.5793 99.326 28.62 99.9416L29.7003 101.625ZM31.8496 101.027C32.7056 101.027 33.4168 101.233 34.0181 101.617L35.0952 99.9318C34.1379 99.32 33.0444 99.0273 31.8496 99.0273V101.027ZM34.0255 101.622C34.6237 101.997 35.1037 102.552 35.4543 103.336L37.2801 102.519C36.7869 101.417 36.0599 100.537 35.0878 99.9271L34.0255 101.622ZM35.4553 103.338C35.808 104.122 36 105.07 36 106.206H38C38 104.846 37.7701 103.608 37.2791 102.517L35.4553 103.338ZM36 106.206V107.015H38V106.206H36ZM36.3213 106.188C36.3213 104.557 35.9967 103.147 35.2058 102.097L33.6086 103.301C34.0365 103.869 34.3213 104.785 34.3213 106.188H36.3213ZM35.2079 102.1C34.3934 101.012 33.2322 100.478 31.8496 100.478V102.478C32.6584 102.478 33.2023 102.758 33.6065 103.298L35.2079 102.1ZM31.8496 100.478C30.4861 100.478 29.3431 101.019 28.5292 102.096L30.1251 103.302C30.5416 102.751 31.0803 102.478 31.8496 102.478V100.478ZM28.5285 102.097C27.7469 103.135 27.4059 104.495 27.3868 106.062L29.3866 106.086C29.4027 104.771 29.6887 103.881 30.1258 103.301L28.5285 102.097ZM27.3867 106.074V107.015H29.3867V106.074H27.3867ZM27.3867 107.015C27.3867 108.613 27.7198 110.003 28.5016 111.076L30.1176 109.897C29.6688 109.282 29.3867 108.358 29.3867 107.015H27.3867ZM28.5062 111.082C29.3245 112.186 30.4811 112.743 31.8672 112.743V110.743C31.0853 110.743 30.5369 110.463 30.1129 109.891L28.5062 111.082ZM31.8672 112.743C33.2347 112.743 34.389 112.228 35.1963 111.159L33.6006 109.954C33.2125 110.467 32.6794 110.743 31.8672 110.743V112.743ZM35.1984 111.157C35.9721 110.125 36.3023 108.746 36.3212 107.15L34.3214 107.126C34.3051 108.495 34.0201 109.394 33.5984 109.957L35.1984 111.157ZM36.3213 107.138V106.188H34.3213V107.138H36.3213ZM41.7109 100.203L42.6392 99.8312L42.3875 99.2031H41.7109V100.203ZM45.8945 110.645L44.9663 111.016L45.8945 113.333L46.8228 111.016L45.8945 110.645ZM50.0781 100.203V99.2031H49.4015L49.1499 99.8312L50.0781 100.203ZM52.2666 100.203H53.2666V99.2031H52.2666V100.203ZM52.2666 113V114H53.2666V113H52.2666ZM50.5791 113H49.5791V114H50.5791V113ZM50.5791 108.017L49.5795 107.987L49.5791 108.002V108.017H50.5791ZM50.7373 102.638L51.7369 102.667L49.8106 102.262L50.7373 102.638ZM46.5361 113V114H47.2098L47.4629 113.376L46.5361 113ZM45.2441 113L44.3175 113.376L44.5706 114H45.2441V113ZM41.0518 102.664L41.9784 102.288L40.0522 102.695L41.0518 102.664ZM41.2188 108.017H42.2188V108.001L42.2183 107.985L41.2188 108.017ZM41.2188 113V114H42.2188V113H41.2188ZM39.5312 113H38.5312V114H39.5312V113ZM39.5312 100.203V99.2031H38.5312V100.203H39.5312ZM40.7827 100.575L44.9663 111.016L46.8228 110.273L42.6392 99.8312L40.7827 100.575ZM46.8228 111.016L51.0064 100.575L49.1499 99.8312L44.9663 110.273L46.8228 111.016ZM50.0781 101.203H52.2666V99.2031H50.0781V101.203ZM51.2666 100.203V113H53.2666V100.203H51.2666ZM52.2666 112H50.5791V114H52.2666V112ZM51.5791 113V108.017H49.5791V113H51.5791ZM51.5787 108.046L51.7369 102.667L49.7377 102.608L49.5795 107.987L51.5787 108.046ZM49.8106 102.262L45.6094 112.624L47.4629 113.376L51.664 103.013L49.8106 102.262ZM46.5361 112H45.2441V114H46.5361V112ZM46.1708 112.624L41.9784 102.288L40.1251 103.04L44.3175 113.376L46.1708 112.624ZM40.0522 102.695L40.2192 108.048L42.2183 107.985L42.0513 102.633L40.0522 102.695ZM40.2188 108.017V113H42.2188V108.017H40.2188ZM41.2188 112H39.5312V114H41.2188V112ZM40.5312 113V100.203H38.5312V113H40.5312ZM39.5312 101.203H41.7109V99.2031H39.5312V101.203ZM56.9336 107.99V106.99H55.9336V107.99H56.9336ZM56.9336 113V114H57.9336V113H56.9336ZM55.2461 113H54.2461V114H55.2461V113ZM55.2461 100.203V99.2031H54.2461V100.203H55.2461ZM63.2529 101.275L62.5824 102.017L62.5852 102.02L63.2529 101.275ZM63.2793 106.988L63.9329 107.745L63.9334 107.745L63.2793 106.988ZM56.9336 106.61H55.9336V107.61H56.9336V106.61ZM62.04 105.978L62.6999 106.729L62.705 106.724L62.04 105.978ZM60.0625 101.592L60.0835 100.592L60.073 100.592H60.0625V101.592ZM56.9336 101.592V100.592H55.9336V101.592H56.9336ZM55.9336 107.99V113H57.9336V107.99H55.9336ZM56.9336 112H55.2461V114H56.9336V112ZM56.2461 113V100.203H54.2461V113H56.2461ZM55.2461 101.203H59.9658V99.2031H55.2461V101.203ZM59.9658 101.203C61.1979 101.203 62.0267 101.515 62.5824 102.017L63.9234 100.533C62.8971 99.606 61.5345 99.2031 59.9658 99.2031V101.203ZM62.5852 102.02C63.148 102.525 63.4482 103.189 63.4482 104.114H65.4482C65.4482 102.684 64.9516 101.456 63.9207 100.531L62.5852 102.02ZM63.4482 104.114C63.4482 105.131 63.1398 105.787 62.6252 106.232L63.9334 107.745C64.9774 106.842 65.4482 105.581 65.4482 104.114H63.4482ZM62.6257 106.231C62.0968 106.688 61.2543 106.99 59.9482 106.99V108.99C61.5367 108.99 62.9149 108.624 63.9329 107.745L62.6257 106.231ZM59.9482 106.99H56.9336V108.99H59.9482V106.99ZM56.9336 107.61H59.9658V105.61H56.9336V107.61ZM59.9658 107.61C61.0118 107.61 61.9741 107.366 62.6998 106.729L61.3802 105.226C61.145 105.433 60.7245 105.61 59.9658 105.61V107.61ZM62.705 106.724C63.4495 106.062 63.7607 105.144 63.7607 104.132H61.7607C61.7607 104.725 61.5915 105.038 61.3751 105.231L62.705 106.724ZM63.7607 104.132C63.7607 103.141 63.4383 102.254 62.7293 101.579L61.3508 103.028C61.6027 103.268 61.7607 103.599 61.7607 104.132H63.7607ZM62.7293 101.579C62.0241 100.908 61.1024 100.613 60.0835 100.592L60.0415 102.592C60.6984 102.605 61.095 102.785 61.3508 103.028L62.7293 101.579ZM60.0625 100.592H56.9336V102.592H60.0625V100.592ZM55.9336 101.592V106.61H57.9336V101.592H55.9336ZM72.4551 109.66L73.3942 109.317L73.1541 108.66H72.4551V109.66ZM67.0938 109.66V108.66H66.3913L66.153 109.321L67.0938 109.66ZM65.8896 113V114H66.5921L66.8304 113.339L65.8896 113ZM64.1494 113L63.2152 112.643L62.6971 114H64.1494V113ZM69.0361 100.203V99.2031H68.3476L68.1019 99.8464L69.0361 100.203ZM70.5127 100.203L71.4467 99.8458L71.2008 99.2031H70.5127V100.203ZM75.4082 113V114H76.8614L76.3422 112.643L75.4082 113ZM73.6768 113L72.7376 113.344L72.9777 114H73.6768V113ZM67.6035 108.271L66.6634 107.931L66.1771 109.271H67.6035V108.271ZM71.9541 108.271V109.271H73.3825L72.8937 107.929L71.9541 108.271ZM69.7744 102.286L70.714 101.944L69.7725 99.3585L68.8343 101.945L69.7744 102.286ZM72.4551 108.66H67.0938V110.66H72.4551V108.66ZM66.153 109.321L64.9489 112.661L66.8304 113.339L68.0345 109.999L66.153 109.321ZM65.8896 112H64.1494V114H65.8896V112ZM65.0836 113.357L69.9703 100.56L68.1019 99.8464L63.2152 112.643L65.0836 113.357ZM69.0361 101.203H70.5127V99.2031H69.0361V101.203ZM69.5787 100.56L74.4742 113.357L76.3422 112.643L71.4467 99.8458L69.5787 100.56ZM75.4082 112H73.6768V114H75.4082V112ZM74.6159 112.656L73.3942 109.317L71.5159 110.004L72.7376 113.344L74.6159 112.656ZM67.6035 109.271H71.9541V107.271H67.6035V109.271ZM72.8937 107.929L70.714 101.944L68.8348 102.628L71.0145 108.614L72.8937 107.929ZM68.8343 101.945L66.6634 107.931L68.5436 108.612L70.7145 102.627L68.8343 101.945ZM80.9014 107.296L81.1793 106.335L81.1776 106.335L80.9014 107.296ZM77.7373 105.767L77.0568 106.499L77.0637 106.506L77.7373 105.767ZM77.957 101.021L78.59 101.795L78.5906 101.794L77.957 101.021ZM83.4502 100.537L83.006 101.433L83.0091 101.435L83.4502 100.537ZM85.0498 101.943L84.2027 102.475L84.2065 102.481L85.0498 101.943ZM85.6211 103.903V104.903H86.6211V103.903H85.6211ZM83.9248 103.903H82.9248V104.903H83.9248V103.903ZM83.1865 102.084L82.5156 102.826L82.5205 102.83L83.1865 102.084ZM79.1523 101.97L79.7697 102.756L79.771 102.755L79.1523 101.97ZM79.1172 104.817L78.48 105.588L78.4856 105.593L78.4912 105.597L79.1172 104.817ZM81.376 105.802L81.1048 106.764L81.1062 106.765L81.376 105.802ZM83.8721 106.795L83.3526 107.65L83.3625 107.655L83.8721 106.795ZM85.208 108.052L84.3496 108.565L84.3542 108.572L85.208 108.052ZM84.4346 112.244L85.0437 113.037L85.0473 113.034L84.4346 112.244ZM78.7305 112.675L78.323 113.588L78.3289 113.591L78.7305 112.675ZM76.9639 111.286L76.1446 111.86L76.1485 111.865L76.9639 111.286ZM76.3486 109.291V108.291H75.3486V109.291H76.3486ZM78.0449 109.291H79.0449V108.291H78.0449V109.291ZM78.8975 111.128L78.2757 111.911L78.2846 111.918L78.8975 111.128ZM83.292 108.315L82.6737 109.101L82.6802 109.106L83.292 108.315ZM81.1776 106.335C79.7903 105.936 78.9071 105.48 78.411 105.028L77.0637 106.506C77.8918 107.26 79.1179 107.824 80.6251 108.257L81.1776 106.335ZM78.4178 105.034C77.964 104.612 77.7529 104.127 77.7529 103.517H75.7529C75.7529 104.687 76.1981 105.702 77.0569 106.499L78.4178 105.034ZM77.7529 103.517C77.7529 102.819 78.0118 102.267 78.59 101.795L77.3241 100.246C76.2968 101.086 75.7529 102.199 75.7529 103.517H77.7529ZM78.5906 101.794C79.1817 101.31 79.9898 101.027 81.1035 101.027V99.0273C79.6391 99.0273 78.3495 99.4066 77.3235 100.247L78.5906 101.794ZM81.1035 101.027C81.8513 101.027 82.4778 101.171 83.006 101.433L83.8943 99.6412C83.0515 99.2234 82.1135 99.0273 81.1035 99.0273V101.027ZM83.0091 101.435C83.5497 101.7 83.9354 102.049 84.2027 102.475L85.8969 101.412C85.4142 100.643 84.7335 100.054 83.8913 99.6397L83.0091 101.435ZM84.2065 102.481C84.485 102.918 84.6211 103.385 84.6211 103.903H86.6211C86.6211 103.004 86.3764 102.164 85.8931 101.406L84.2065 102.481ZM85.6211 102.903H83.9248V104.903H85.6211V102.903ZM84.9248 103.903C84.9248 102.899 84.5943 102 83.8525 101.338L82.5205 102.83C82.7631 103.047 82.9248 103.361 82.9248 103.903H84.9248ZM83.8574 101.342C83.1251 100.68 82.1599 100.416 81.1035 100.416V102.416C81.8401 102.416 82.2635 102.597 82.5156 102.826L83.8574 101.342ZM81.1035 100.416C80.1341 100.416 79.2367 100.63 78.5337 101.184L79.771 102.755C80.0055 102.571 80.4089 102.416 81.1035 102.416V100.416ZM78.535 101.183C77.8029 101.758 77.458 102.57 77.458 103.49H79.458C79.458 103.11 79.576 102.908 79.7697 102.756L78.535 101.183ZM77.458 103.49C77.458 104.34 77.8352 105.055 78.48 105.588L79.7543 104.047C79.5203 103.853 79.458 103.683 79.458 103.49H77.458ZM78.4912 105.597C79.0989 106.085 80.0127 106.457 81.1048 106.764L81.6472 104.839C80.6181 104.549 80.0261 104.265 79.7431 104.038L78.4912 105.597ZM81.1062 106.765C82.1295 107.051 82.8645 107.353 83.3527 107.649L84.3915 105.94C83.6843 105.511 82.7552 105.15 81.6458 104.839L81.1062 106.765ZM83.3625 107.655C83.8583 107.949 84.167 108.259 84.3496 108.565L86.0664 107.539C85.6748 106.883 85.0929 106.356 84.3816 105.934L83.3625 107.655ZM84.3542 108.572C84.5375 108.873 84.6475 109.252 84.6475 109.748H86.6475C86.6475 108.943 86.4645 108.192 86.0618 107.531L84.3542 108.572ZM84.6475 109.748C84.6475 110.481 84.3822 111.019 83.8218 111.454L85.0473 113.034C86.1041 112.215 86.6475 111.089 86.6475 109.748H84.6475ZM83.8254 111.451C83.2411 111.9 82.3966 112.176 81.1914 112.176V114.176C82.6933 114.176 84.0108 113.831 85.0437 113.037L83.8254 111.451ZM81.1914 112.176C80.4427 112.176 79.76 112.034 79.132 111.759L78.3289 113.591C79.2243 113.983 80.1823 114.176 81.1914 114.176V112.176ZM79.1379 111.762C78.513 111.483 78.076 111.125 77.7793 110.707L76.1485 111.865C76.6838 112.619 77.4245 113.187 78.323 113.588L79.1379 111.762ZM77.7831 110.713C77.4956 110.302 77.3486 109.839 77.3486 109.291H75.3486C75.3486 110.232 75.6119 111.098 76.1446 111.86L77.7831 110.713ZM76.3486 110.291H78.0449V108.291H76.3486V110.291ZM77.0449 109.291C77.0449 110.346 77.4508 111.256 78.2757 111.911L79.5192 110.345C79.2074 110.097 79.0449 109.782 79.0449 109.291H77.0449ZM78.2846 111.918C79.0824 112.537 80.0843 112.796 81.1914 112.796V110.796C80.3883 110.796 79.8609 110.61 79.5103 110.338L78.2846 111.918ZM81.1914 112.796C82.1989 112.796 83.1309 112.593 83.8471 112.045L82.6314 110.457C82.3984 110.635 81.9652 110.796 81.1914 110.796V112.796ZM83.8471 112.045C84.5827 111.482 84.9512 110.686 84.9512 109.766H82.9512C82.9512 110.099 82.8451 110.293 82.6314 110.457L83.8471 112.045ZM84.9512 109.766C84.9512 108.874 84.6218 108.08 83.9037 107.524L82.6802 109.106C82.8411 109.231 82.9512 109.403 82.9512 109.766H84.9512ZM83.9103 107.529C83.3077 107.055 82.3478 106.673 81.1793 106.335L80.6234 108.256C81.7635 108.586 82.3973 108.884 82.6737 109.101L83.9103 107.529Z" fill="#0065A3"/>
<path d="M45.9062 43.8203L39.2158 51.4078L17.8135 43.8203H45.9062Z" fill="#C9DA2A" stroke="#C9DA2A" stroke-width="2"/>
<path d="M45.9062 41.8203H17.8135L39.2158 34.2328L45.9062 41.8203Z" fill="#5EA73C" stroke="#5EA73C" stroke-width="2"/>
<path d="M61.8851 34.2332L83.3223 41.8203H55.2309L61.8851 34.2332Z" fill="#C9DA2A" stroke="#C9DA2A" stroke-width="2"/>
<path d="M83.3223 43.8203L61.8851 51.4074L55.2309 43.8203H83.3223Z" fill="#5EA73C" stroke="#5EA73C" stroke-width="2"/>
<path d="M43.1218 31.1758L49.5725 7.48029V38.5707L43.1218 31.1758Z" fill="#00ADEE" stroke="#00ADEE" stroke-width="2"/>
<path d="M51.5725 7.48029L58.0232 31.1758L51.5725 38.5707V7.48029Z" fill="#0065A3" stroke="#0065A3" stroke-width="2"/>
<path d="M51.5725 47.1119L58.0228 54.4665L51.5725 78.1604V47.1119Z" fill="#00ADEE" stroke="#00ADEE" stroke-width="2"/>
<path d="M43.1685 54.3083L49.6187 46.9537V78.0021L43.1685 54.3083Z" fill="#0065A3" stroke="#0065A3" stroke-width="2"/>
<path d="M61.2129 23.726L71.434 17.5854L62.3422 27.9849L61.2129 23.726Z" fill="#5EA73C" stroke="#5EA73C" stroke-width="2"/>
<path d="M72.604 19.2858L67.2925 30.8743L63.5888 29.5976L72.604 19.2858Z" fill="#C9DA2A" stroke="#C9DA2A" stroke-width="2"/>
<path d="M67.6681 54.9301L73.0182 66.5074L63.9576 56.242L67.6681 54.9301Z" fill="#0065A3" stroke="#0065A3" stroke-width="2"/>
<path d="M71.8153 68.1668L61.585 62.0709L62.7121 57.8532L71.8153 68.1668Z" fill="#00ADEE" stroke="#00ADEE" stroke-width="2"/>
<path d="M39.974 62.4445L29.7292 68.5994L38.8131 58.1758L39.974 62.4445Z" fill="#5EA73C" stroke="#5EA73C" stroke-width="2"/>
<path d="M33.8979 55.2956L37.5611 56.5683L28.6033 66.8473L33.8979 55.2956Z" fill="#C9DA2A" stroke="#C9DA2A" stroke-width="2"/>
<path d="M33.8952 30.8206L28.575 19.308L37.5564 29.5486L33.8952 30.8206Z" fill="#0065A3" stroke="#0065A3" stroke-width="2"/>
<path d="M29.6897 17.5458L39.9733 23.6735L38.8113 27.9463L29.6897 17.5458Z" fill="#00ADEE" stroke="#00ADEE" stroke-width="2"/>
<path d="M85 90H16" stroke="#0065A3"/>
</svg>
