<svg width="78" height="87" viewBox="0 0 78 87" fill="none" xmlns="http://www.w3.org/2000/svg">
<path d="M34.3437 44.5391L27.6533 52.1265L6.25101 44.5391H34.3437Z" fill="#C9DA2A" stroke="#C9DA2A" stroke-width="2"/>
<path d="M34.3437 42.5391H6.25101L27.6533 34.9516L34.3437 42.5391Z" fill="#5EA73C" stroke="#5EA73C" stroke-width="2"/>
<path d="M50.3226 34.952L71.7598 42.5391H43.6684L50.3226 34.952Z" fill="#C9DA2A" stroke="#C9DA2A" stroke-width="2"/>
<path d="M71.7598 44.5391L50.3226 52.1262L43.6684 44.5391H71.7598Z" fill="#5EA73C" stroke="#5EA73C" stroke-width="2"/>
<path d="M31.5593 31.8945L38.01 8.19904V39.2894L31.5593 31.8945Z" fill="#00ADEE" stroke="#00ADEE" stroke-width="2"/>
<path d="M40.01 8.19904L46.4607 31.8945L40.01 39.2894V8.19904Z" fill="#0065A3" stroke="#0065A3" stroke-width="2"/>
<path d="M40.01 47.8307L46.4603 55.1853L40.01 78.8791V47.8307Z" fill="#00ADEE" stroke="#00ADEE" stroke-width="2"/>
<path d="M31.606 55.0271L38.0562 47.6724V78.7209L31.606 55.0271Z" fill="#0065A3" stroke="#0065A3" stroke-width="2"/>
<path d="M49.6505 24.4448L59.8715 18.3041L50.7797 28.7036L49.6505 24.4448Z" fill="#5EA73C" stroke="#5EA73C" stroke-width="2"/>
<path d="M61.0415 20.0045L55.73 31.5931L52.0263 30.3164L61.0415 20.0045Z" fill="#C9DA2A" stroke="#C9DA2A" stroke-width="2"/>
<path d="M56.1056 55.6489L61.4557 67.2261L52.3951 56.9607L56.1056 55.6489Z" fill="#0065A3" stroke="#0065A3" stroke-width="2"/>
<path d="M60.2528 68.8855L50.0225 62.7896L51.1496 58.5719L60.2528 68.8855Z" fill="#00ADEE" stroke="#00ADEE" stroke-width="2"/>
<path d="M28.4115 63.1633L18.1667 69.3182L27.2506 58.8945L28.4115 63.1633Z" fill="#5EA73C" stroke="#5EA73C" stroke-width="2"/>
<path d="M22.3354 56.0144L25.9986 57.287L17.0408 67.566L22.3354 56.0144Z" fill="#C9DA2A" stroke="#C9DA2A" stroke-width="2"/>
<path d="M22.3327 31.5393L17.0125 20.0268L25.9939 30.2674L22.3327 31.5393Z" fill="#0065A3" stroke="#0065A3" stroke-width="2"/>
<path d="M18.1272 18.2645L28.4108 24.3922L27.2488 28.665L18.1272 18.2645Z" fill="#00ADEE" stroke="#00ADEE" stroke-width="2"/>
</svg>
