<svg width="78" height="129" viewBox="0 0 78 129" fill="none" xmlns="http://www.w3.org/2000/svg">
<path d="M33.9062 43.8203L27.2158 51.4078L5.81349 43.8203H33.9062Z" fill="#C9DA2A" stroke="#C9DA2A" stroke-width="2"/>
<path d="M33.9062 41.8203H5.81349L27.2158 34.2328L33.9062 41.8203Z" fill="#5EA73C" stroke="#5EA73C" stroke-width="2"/>
<path d="M49.8851 34.2332L71.3223 41.8203H43.2309L49.8851 34.2332Z" fill="#C9DA2A" stroke="#C9DA2A" stroke-width="2"/>
<path d="M71.3223 43.8203L49.8851 51.4074L43.2309 43.8203H71.3223Z" fill="#5EA73C" stroke="#5EA73C" stroke-width="2"/>
<path d="M31.1218 31.1758L37.5725 7.48029V38.5707L31.1218 31.1758Z" fill="#00ADEE" stroke="#00ADEE" stroke-width="2"/>
<path d="M39.5725 7.48029L46.0232 31.1758L39.5725 38.5707V7.48029Z" fill="#0065A3" stroke="#0065A3" stroke-width="2"/>
<path d="M39.5725 47.1119L46.0228 54.4665L39.5725 78.1604V47.1119Z" fill="#00ADEE" stroke="#00ADEE" stroke-width="2"/>
<path d="M31.1685 54.3083L37.6187 46.9537V78.0021L31.1685 54.3083Z" fill="#0065A3" stroke="#0065A3" stroke-width="2"/>
<path d="M49.2129 23.726L59.434 17.5854L50.3422 27.9849L49.2129 23.726Z" fill="#5EA73C" stroke="#5EA73C" stroke-width="2"/>
<path d="M60.604 19.2858L55.2925 30.8743L51.5888 29.5976L60.604 19.2858Z" fill="#C9DA2A" stroke="#C9DA2A" stroke-width="2"/>
<path d="M55.6681 54.9301L61.0182 66.5074L51.9576 56.242L55.6681 54.9301Z" fill="#0065A3" stroke="#0065A3" stroke-width="2"/>
<path d="M59.8153 68.1668L49.585 62.0709L50.7121 57.8532L59.8153 68.1668Z" fill="#00ADEE" stroke="#00ADEE" stroke-width="2"/>
<path d="M27.974 62.4445L17.7292 68.5994L26.8131 58.1758L27.974 62.4445Z" fill="#5EA73C" stroke="#5EA73C" stroke-width="2"/>
<path d="M21.8979 55.2956L25.5611 56.5683L16.6033 66.8473L21.8979 55.2956Z" fill="#C9DA2A" stroke="#C9DA2A" stroke-width="2"/>
<path d="M21.8952 30.8206L16.575 19.308L25.5564 29.5486L21.8952 30.8206Z" fill="#0065A3" stroke="#0065A3" stroke-width="2"/>
<path d="M17.6897 17.5458L27.9733 23.6735L26.8113 27.9463L17.6897 17.5458Z" fill="#00ADEE" stroke="#00ADEE" stroke-width="2"/>
<path d="M7.4043 107.05L5.83984 108.676V113H4.15234V100.203H5.83984V106.531L11.5264 100.203H13.5654L8.5293 105.854L13.9609 113H11.9395L7.4043 107.05ZM25 107.015C25 108.269 24.7891 109.364 24.3672 110.302C23.9453 111.233 23.3477 111.945 22.5742 112.438C21.8008 112.93 20.8984 113.176 19.8672 113.176C18.8594 113.176 17.9658 112.93 17.1865 112.438C16.4072 111.939 15.8008 111.233 15.3672 110.319C14.9395 109.399 14.7197 108.336 14.708 107.129V106.206C14.708 104.976 14.9219 103.889 15.3496 102.945C15.7773 102.002 16.3809 101.281 17.1602 100.783C17.9453 100.279 18.8418 100.027 19.8496 100.027C20.875 100.027 21.7773 100.276 22.5566 100.774C23.3418 101.267 23.9453 101.984 24.3672 102.928C24.7891 103.865 25 104.958 25 106.206V107.015ZM23.3213 106.188C23.3213 104.671 23.0166 103.508 22.4072 102.699C21.7979 101.885 20.9453 101.478 19.8496 101.478C18.7832 101.478 17.9424 101.885 17.3271 102.699C16.7178 103.508 16.4043 104.633 16.3867 106.074V107.015C16.3867 108.485 16.6943 109.643 17.3096 110.486C17.9307 111.324 18.7832 111.743 19.8672 111.743C20.957 111.743 21.8008 111.348 22.3984 110.557C22.9961 109.76 23.3037 108.62 23.3213 107.138V106.188ZM29.7109 100.203L33.8945 110.645L38.0781 100.203H40.2666V113H38.5791V108.017L38.7373 102.638L34.5361 113H33.2441L29.0518 102.664L29.2188 108.017V113H27.5312V100.203H29.7109ZM44.9336 107.99V113H43.2461V100.203H47.9658C49.3662 100.203 50.4619 100.561 51.2529 101.275C52.0498 101.99 52.4482 102.937 52.4482 104.114C52.4482 105.356 52.0586 106.314 51.2793 106.988C50.5059 107.656 49.3955 107.99 47.9482 107.99H44.9336ZM44.9336 106.61H47.9658C48.8682 106.61 49.5596 106.399 50.04 105.978C50.5205 105.55 50.7607 104.935 50.7607 104.132C50.7607 103.37 50.5205 102.761 50.04 102.304C49.5596 101.847 48.9004 101.609 48.0625 101.592H44.9336V106.61ZM60.4551 109.66H55.0938L53.8896 113H52.1494L57.0361 100.203H58.5127L63.4082 113H61.6768L60.4551 109.66ZM55.6035 108.271H59.9541L57.7744 102.286L55.6035 108.271ZM68.9014 107.296C67.4541 106.88 66.3994 106.37 65.7373 105.767C65.0811 105.157 64.7529 104.407 64.7529 103.517C64.7529 102.509 65.1543 101.677 65.957 101.021C66.7656 100.358 67.8145 100.027 69.1035 100.027C69.9824 100.027 70.7646 100.197 71.4502 100.537C72.1416 100.877 72.6748 101.346 73.0498 101.943C73.4307 102.541 73.6211 103.194 73.6211 103.903H71.9248C71.9248 103.13 71.6787 102.523 71.1865 102.084C70.6943 101.639 70 101.416 69.1035 101.416C68.2715 101.416 67.6211 101.601 67.1523 101.97C66.6895 102.333 66.458 102.84 66.458 103.49C66.458 104.012 66.6777 104.454 67.1172 104.817C67.5625 105.175 68.3154 105.503 69.376 105.802C70.4424 106.101 71.2744 106.432 71.8721 106.795C72.4756 107.152 72.9209 107.571 73.208 108.052C73.501 108.532 73.6475 109.098 73.6475 109.748C73.6475 110.785 73.2432 111.617 72.4346 112.244C71.626 112.865 70.5449 113.176 69.1914 113.176C68.3125 113.176 67.4922 113.009 66.7305 112.675C65.9688 112.335 65.3799 111.872 64.9639 111.286C64.5537 110.7 64.3486 110.035 64.3486 109.291H66.0449C66.0449 110.064 66.3291 110.677 66.8975 111.128C67.4717 111.573 68.2363 111.796 69.1914 111.796C70.082 111.796 70.7646 111.614 71.2393 111.251C71.7139 110.888 71.9512 110.393 71.9512 109.766C71.9512 109.139 71.7314 108.655 71.292 108.315C70.8525 107.97 70.0557 107.63 68.9014 107.296Z" fill="#0065A3"/>
<path d="M7.4043 107.05L8.19962 106.444L7.49249 105.516L6.68369 106.356L7.4043 107.05ZM5.83984 108.676L5.11924 107.982L4.83984 108.273V108.676H5.83984ZM5.83984 113V114H6.83984V113H5.83984ZM4.15234 113H3.15234V114H4.15234V113ZM4.15234 100.203V99.2031H3.15234V100.203H4.15234ZM5.83984 100.203H6.83984V99.2031H5.83984V100.203ZM5.83984 106.531H4.83984V109.14L6.58365 107.2L5.83984 106.531ZM11.5264 100.203V99.2031H11.0805L10.7826 99.5347L11.5264 100.203ZM13.5654 100.203L14.312 100.868L15.796 99.2031H13.5654V100.203ZM8.5293 105.854L7.78272 105.189L7.23482 105.804L7.73319 106.46L8.5293 105.854ZM13.9609 113V114H15.9772L14.757 112.395L13.9609 113ZM11.9395 113L11.1441 113.606L11.4443 114H11.9395V113ZM6.68369 106.356L5.11924 107.982L6.56045 109.369L8.12491 107.743L6.68369 106.356ZM4.83984 108.676V113H6.83984V108.676H4.83984ZM5.83984 112H4.15234V114H5.83984V112ZM5.15234 113V100.203H3.15234V113H5.15234ZM4.15234 101.203H5.83984V99.2031H4.15234V101.203ZM4.83984 100.203V106.531H6.83984V100.203H4.83984ZM6.58365 107.2L12.2702 100.872L10.7826 99.5347L5.09604 105.863L6.58365 107.2ZM11.5264 101.203H13.5654V99.2031H11.5264V101.203ZM12.8189 99.5378L7.78272 105.189L9.27587 106.52L14.312 100.868L12.8189 99.5378ZM7.73319 106.46L13.1648 113.605L14.757 112.395L9.3254 105.249L7.73319 106.46ZM13.9609 112H11.9395V114H13.9609V112ZM12.7348 112.394L8.19962 106.444L6.60897 107.656L11.1441 113.606L12.7348 112.394ZM24.3672 110.302L25.2781 110.714L25.2791 110.712L24.3672 110.302ZM17.1865 112.438L16.648 113.28L16.6525 113.283L17.1865 112.438ZM15.3672 110.319L14.4604 110.741L14.4637 110.748L15.3672 110.319ZM14.708 107.129H13.708L13.7081 107.139L14.708 107.129ZM17.1602 100.783L17.6987 101.626L17.7003 101.625L17.1602 100.783ZM22.5566 100.774L22.0181 101.617L22.0255 101.622L22.5566 100.774ZM24.3672 102.928L23.4543 103.336L23.4553 103.338L24.3672 102.928ZM22.4072 102.699L21.6065 103.298L21.6086 103.301L22.4072 102.699ZM17.3271 102.699L16.5292 102.096L16.5285 102.097L17.3271 102.699ZM16.3867 106.074L15.3867 106.062V106.074H16.3867ZM17.3096 110.486L16.5015 111.076L16.5062 111.082L17.3096 110.486ZM22.3984 110.557L23.1963 111.159L23.1984 111.157L22.3984 110.557ZM23.3213 107.138L24.3213 107.15V107.138H23.3213ZM24 107.015C24 108.157 23.8078 109.108 23.4553 109.891L25.2791 110.712C25.7703 109.62 26 108.38 26 107.015H24ZM23.4562 109.889C23.1049 110.665 22.6283 111.218 22.0373 111.594L23.1111 113.281C24.067 112.673 24.7857 111.802 25.2781 110.714L23.4562 109.889ZM22.0373 111.594C21.4438 111.972 20.7327 112.176 19.8672 112.176V114.176C21.0642 114.176 22.1577 113.888 23.1111 113.281L22.0373 111.594ZM19.8672 112.176C19.0301 112.176 18.3252 111.974 17.7205 111.592L16.6525 113.283C17.6065 113.885 18.6887 114.176 19.8672 114.176V112.176ZM17.725 111.595C17.1185 111.207 16.6317 110.652 16.2707 109.891L14.4637 110.748C14.9699 111.815 15.6959 112.672 16.648 113.28L17.725 111.595ZM16.274 109.898C15.9166 109.129 15.7186 108.211 15.708 107.119L13.7081 107.139C13.7209 108.461 13.9623 109.67 14.4604 110.741L16.274 109.898ZM15.708 107.129V106.206H13.708V107.129H15.708ZM15.708 106.206C15.708 105.092 15.9015 104.15 16.2604 103.358L14.4389 102.532C13.9423 103.628 13.708 104.86 13.708 106.206H15.708ZM16.2604 103.358C16.6181 102.569 17.1015 102.007 17.6987 101.626L16.6216 99.9406C15.6602 100.555 14.9366 101.435 14.4389 102.532L16.2604 103.358ZM17.7003 101.625C18.3113 101.233 19.0173 101.027 19.8496 101.027V99.0273C18.6663 99.0273 17.5793 99.326 16.62 99.9416L17.7003 101.625ZM19.8496 101.027C20.7056 101.027 21.4168 101.233 22.0181 101.617L23.0952 99.9318C22.1379 99.32 21.0444 99.0273 19.8496 99.0273V101.027ZM22.0255 101.622C22.6237 101.997 23.1037 102.552 23.4543 103.336L25.2801 102.519C24.7869 101.417 24.0599 100.537 23.0878 99.9271L22.0255 101.622ZM23.4553 103.338C23.808 104.122 24 105.07 24 106.206H26C26 104.846 25.7701 103.608 25.2791 102.517L23.4553 103.338ZM24 106.206V107.015H26V106.206H24ZM24.3213 106.188C24.3213 104.557 23.9967 103.147 23.2058 102.097L21.6086 103.301C22.0365 103.869 22.3213 104.785 22.3213 106.188H24.3213ZM23.2079 102.1C22.3934 101.012 21.2322 100.478 19.8496 100.478V102.478C20.6584 102.478 21.2023 102.758 21.6065 103.298L23.2079 102.1ZM19.8496 100.478C18.4861 100.478 17.3431 101.019 16.5292 102.096L18.1251 103.302C18.5416 102.751 19.0803 102.478 19.8496 102.478V100.478ZM16.5285 102.097C15.7469 103.135 15.4059 104.495 15.3868 106.062L17.3866 106.086C17.4027 104.771 17.6887 103.881 18.1258 103.301L16.5285 102.097ZM15.3867 106.074V107.015H17.3867V106.074H15.3867ZM15.3867 107.015C15.3867 108.613 15.7198 110.003 16.5016 111.076L18.1176 109.897C17.6688 109.282 17.3867 108.358 17.3867 107.015H15.3867ZM16.5062 111.082C17.3245 112.186 18.4811 112.743 19.8672 112.743V110.743C19.0853 110.743 18.5369 110.463 18.1129 109.891L16.5062 111.082ZM19.8672 112.743C21.2347 112.743 22.389 112.228 23.1963 111.159L21.6006 109.954C21.2125 110.467 20.6794 110.743 19.8672 110.743V112.743ZM23.1984 111.157C23.9721 110.125 24.3023 108.746 24.3212 107.15L22.3214 107.126C22.3051 108.495 22.0201 109.394 21.5984 109.957L23.1984 111.157ZM24.3213 107.138V106.188H22.3213V107.138H24.3213ZM29.7109 100.203L30.6392 99.8312L30.3875 99.2031H29.7109V100.203ZM33.8945 110.645L32.9663 111.016L33.8945 113.333L34.8228 111.016L33.8945 110.645ZM38.0781 100.203V99.2031H37.4015L37.1499 99.8312L38.0781 100.203ZM40.2666 100.203H41.2666V99.2031H40.2666V100.203ZM40.2666 113V114H41.2666V113H40.2666ZM38.5791 113H37.5791V114H38.5791V113ZM38.5791 108.017L37.5795 107.987L37.5791 108.002V108.017H38.5791ZM38.7373 102.638L39.7369 102.667L37.8106 102.262L38.7373 102.638ZM34.5361 113V114H35.2098L35.4629 113.376L34.5361 113ZM33.2441 113L32.3175 113.376L32.5706 114H33.2441V113ZM29.0518 102.664L29.9784 102.288L28.0522 102.695L29.0518 102.664ZM29.2188 108.017H30.2188V108.001L30.2183 107.985L29.2188 108.017ZM29.2188 113V114H30.2188V113H29.2188ZM27.5312 113H26.5312V114H27.5312V113ZM27.5312 100.203V99.2031H26.5312V100.203H27.5312ZM28.7827 100.575L32.9663 111.016L34.8228 110.273L30.6392 99.8312L28.7827 100.575ZM34.8228 111.016L39.0064 100.575L37.1499 99.8312L32.9663 110.273L34.8228 111.016ZM38.0781 101.203H40.2666V99.2031H38.0781V101.203ZM39.2666 100.203V113H41.2666V100.203H39.2666ZM40.2666 112H38.5791V114H40.2666V112ZM39.5791 113V108.017H37.5791V113H39.5791ZM39.5787 108.046L39.7369 102.667L37.7377 102.608L37.5795 107.987L39.5787 108.046ZM37.8106 102.262L33.6094 112.624L35.4629 113.376L39.664 103.013L37.8106 102.262ZM34.5361 112H33.2441V114H34.5361V112ZM34.1708 112.624L29.9784 102.288L28.1251 103.04L32.3175 113.376L34.1708 112.624ZM28.0522 102.695L28.2192 108.048L30.2183 107.985L30.0513 102.633L28.0522 102.695ZM28.2188 108.017V113H30.2188V108.017H28.2188ZM29.2188 112H27.5312V114H29.2188V112ZM28.5312 113V100.203H26.5312V113H28.5312ZM27.5312 101.203H29.7109V99.2031H27.5312V101.203ZM44.9336 107.99V106.99H43.9336V107.99H44.9336ZM44.9336 113V114H45.9336V113H44.9336ZM43.2461 113H42.2461V114H43.2461V113ZM43.2461 100.203V99.2031H42.2461V100.203H43.2461ZM51.2529 101.275L50.5824 102.017L50.5852 102.02L51.2529 101.275ZM51.2793 106.988L51.9329 107.745L51.9334 107.745L51.2793 106.988ZM44.9336 106.61H43.9336V107.61H44.9336V106.61ZM50.04 105.978L50.6999 106.729L50.705 106.724L50.04 105.978ZM48.0625 101.592L48.0835 100.592L48.073 100.592H48.0625V101.592ZM44.9336 101.592V100.592H43.9336V101.592H44.9336ZM43.9336 107.99V113H45.9336V107.99H43.9336ZM44.9336 112H43.2461V114H44.9336V112ZM44.2461 113V100.203H42.2461V113H44.2461ZM43.2461 101.203H47.9658V99.2031H43.2461V101.203ZM47.9658 101.203C49.1979 101.203 50.0267 101.515 50.5824 102.017L51.9234 100.533C50.8971 99.606 49.5345 99.2031 47.9658 99.2031V101.203ZM50.5852 102.02C51.148 102.525 51.4482 103.189 51.4482 104.114H53.4482C53.4482 102.684 52.9516 101.456 51.9207 100.531L50.5852 102.02ZM51.4482 104.114C51.4482 105.131 51.1398 105.787 50.6252 106.232L51.9334 107.745C52.9774 106.842 53.4482 105.581 53.4482 104.114H51.4482ZM50.6257 106.231C50.0968 106.688 49.2543 106.99 47.9482 106.99V108.99C49.5367 108.99 50.9149 108.624 51.9329 107.745L50.6257 106.231ZM47.9482 106.99H44.9336V108.99H47.9482V106.99ZM44.9336 107.61H47.9658V105.61H44.9336V107.61ZM47.9658 107.61C49.0118 107.61 49.9741 107.366 50.6998 106.729L49.3802 105.226C49.145 105.433 48.7245 105.61 47.9658 105.61V107.61ZM50.705 106.724C51.4495 106.062 51.7607 105.144 51.7607 104.132H49.7607C49.7607 104.725 49.5915 105.038 49.3751 105.231L50.705 106.724ZM51.7607 104.132C51.7607 103.141 51.4383 102.254 50.7293 101.579L49.3508 103.028C49.6027 103.268 49.7607 103.599 49.7607 104.132H51.7607ZM50.7293 101.579C50.0241 100.908 49.1024 100.613 48.0835 100.592L48.0415 102.592C48.6984 102.605 49.095 102.785 49.3508 103.028L50.7293 101.579ZM48.0625 100.592H44.9336V102.592H48.0625V100.592ZM43.9336 101.592V106.61H45.9336V101.592H43.9336ZM60.4551 109.66L61.3942 109.317L61.1541 108.66H60.4551V109.66ZM55.0938 109.66V108.66H54.3913L54.153 109.321L55.0938 109.66ZM53.8896 113V114H54.5921L54.8304 113.339L53.8896 113ZM52.1494 113L51.2152 112.643L50.6971 114H52.1494V113ZM57.0361 100.203V99.2031H56.3476L56.1019 99.8464L57.0361 100.203ZM58.5127 100.203L59.4467 99.8458L59.2008 99.2031H58.5127V100.203ZM63.4082 113V114H64.8614L64.3422 112.643L63.4082 113ZM61.6768 113L60.7376 113.344L60.9777 114H61.6768V113ZM55.6035 108.271L54.6634 107.931L54.1771 109.271H55.6035V108.271ZM59.9541 108.271V109.271H61.3825L60.8937 107.929L59.9541 108.271ZM57.7744 102.286L58.714 101.944L57.7725 99.3585L56.8343 101.945L57.7744 102.286ZM60.4551 108.66H55.0938V110.66H60.4551V108.66ZM54.153 109.321L52.9489 112.661L54.8304 113.339L56.0345 109.999L54.153 109.321ZM53.8896 112H52.1494V114H53.8896V112ZM53.0836 113.357L57.9703 100.56L56.1019 99.8464L51.2152 112.643L53.0836 113.357ZM57.0361 101.203H58.5127V99.2031H57.0361V101.203ZM57.5787 100.56L62.4742 113.357L64.3422 112.643L59.4467 99.8458L57.5787 100.56ZM63.4082 112H61.6768V114H63.4082V112ZM62.6159 112.656L61.3942 109.317L59.5159 110.004L60.7376 113.344L62.6159 112.656ZM55.6035 109.271H59.9541V107.271H55.6035V109.271ZM60.8937 107.929L58.714 101.944L56.8348 102.628L59.0145 108.614L60.8937 107.929ZM56.8343 101.945L54.6634 107.931L56.5436 108.612L58.7145 102.627L56.8343 101.945ZM68.9014 107.296L69.1793 106.335L69.1776 106.335L68.9014 107.296ZM65.7373 105.767L65.0568 106.499L65.0637 106.506L65.7373 105.767ZM65.957 101.021L66.59 101.795L66.5906 101.794L65.957 101.021ZM71.4502 100.537L71.006 101.433L71.0091 101.435L71.4502 100.537ZM73.0498 101.943L72.2027 102.475L72.2065 102.481L73.0498 101.943ZM73.6211 103.903V104.903H74.6211V103.903H73.6211ZM71.9248 103.903H70.9248V104.903H71.9248V103.903ZM71.1865 102.084L70.5156 102.826L70.5205 102.83L71.1865 102.084ZM67.1523 101.97L67.7697 102.756L67.771 102.755L67.1523 101.97ZM67.1172 104.817L66.48 105.588L66.4856 105.593L66.4912 105.597L67.1172 104.817ZM69.376 105.802L69.1048 106.764L69.1062 106.765L69.376 105.802ZM71.8721 106.795L71.3526 107.65L71.3625 107.655L71.8721 106.795ZM73.208 108.052L72.3496 108.565L72.3542 108.572L73.208 108.052ZM72.4346 112.244L73.0437 113.037L73.0473 113.034L72.4346 112.244ZM66.7305 112.675L66.323 113.588L66.3289 113.591L66.7305 112.675ZM64.9639 111.286L64.1446 111.86L64.1485 111.865L64.9639 111.286ZM64.3486 109.291V108.291H63.3486V109.291H64.3486ZM66.0449 109.291H67.0449V108.291H66.0449V109.291ZM66.8975 111.128L66.2757 111.911L66.2846 111.918L66.8975 111.128ZM71.292 108.315L70.6737 109.101L70.6802 109.106L71.292 108.315ZM69.1776 106.335C67.7903 105.936 66.9071 105.48 66.411 105.028L65.0637 106.506C65.8918 107.26 67.1179 107.824 68.6251 108.257L69.1776 106.335ZM66.4178 105.034C65.964 104.612 65.7529 104.127 65.7529 103.517H63.7529C63.7529 104.687 64.1981 105.702 65.0569 106.499L66.4178 105.034ZM65.7529 103.517C65.7529 102.819 66.0118 102.267 66.59 101.795L65.3241 100.246C64.2968 101.086 63.7529 102.199 63.7529 103.517H65.7529ZM66.5906 101.794C67.1817 101.31 67.9898 101.027 69.1035 101.027V99.0273C67.6391 99.0273 66.3495 99.4066 65.3235 100.247L66.5906 101.794ZM69.1035 101.027C69.8513 101.027 70.4778 101.171 71.006 101.433L71.8943 99.6412C71.0515 99.2234 70.1135 99.0273 69.1035 99.0273V101.027ZM71.0091 101.435C71.5497 101.7 71.9354 102.049 72.2027 102.475L73.8969 101.412C73.4142 100.643 72.7335 100.054 71.8913 99.6397L71.0091 101.435ZM72.2065 102.481C72.485 102.918 72.6211 103.385 72.6211 103.903H74.6211C74.6211 103.004 74.3764 102.164 73.8931 101.406L72.2065 102.481ZM73.6211 102.903H71.9248V104.903H73.6211V102.903ZM72.9248 103.903C72.9248 102.899 72.5943 102 71.8525 101.338L70.5205 102.83C70.7631 103.047 70.9248 103.361 70.9248 103.903H72.9248ZM71.8574 101.342C71.1251 100.68 70.1599 100.416 69.1035 100.416V102.416C69.8401 102.416 70.2635 102.597 70.5156 102.826L71.8574 101.342ZM69.1035 100.416C68.1341 100.416 67.2367 100.63 66.5337 101.184L67.771 102.755C68.0055 102.571 68.4089 102.416 69.1035 102.416V100.416ZM66.535 101.183C65.8029 101.758 65.458 102.57 65.458 103.49H67.458C67.458 103.11 67.576 102.908 67.7697 102.756L66.535 101.183ZM65.458 103.49C65.458 104.34 65.8352 105.055 66.48 105.588L67.7543 104.047C67.5203 103.853 67.458 103.683 67.458 103.49H65.458ZM66.4912 105.597C67.0989 106.085 68.0127 106.457 69.1048 106.764L69.6472 104.839C68.6181 104.549 68.0261 104.265 67.7431 104.038L66.4912 105.597ZM69.1062 106.765C70.1295 107.051 70.8645 107.353 71.3527 107.649L72.3915 105.94C71.6843 105.511 70.7552 105.15 69.6458 104.839L69.1062 106.765ZM71.3625 107.655C71.8583 107.949 72.167 108.259 72.3496 108.565L74.0664 107.539C73.6748 106.883 73.0929 106.356 72.3816 105.934L71.3625 107.655ZM72.3542 108.572C72.5375 108.873 72.6475 109.252 72.6475 109.748H74.6475C74.6475 108.943 74.4645 108.192 74.0618 107.531L72.3542 108.572ZM72.6475 109.748C72.6475 110.481 72.3822 111.019 71.8218 111.454L73.0473 113.034C74.1041 112.215 74.6475 111.089 74.6475 109.748H72.6475ZM71.8254 111.451C71.2411 111.9 70.3966 112.176 69.1914 112.176V114.176C70.6933 114.176 72.0108 113.831 73.0437 113.037L71.8254 111.451ZM69.1914 112.176C68.4427 112.176 67.76 112.034 67.132 111.759L66.3289 113.591C67.2243 113.983 68.1823 114.176 69.1914 114.176V112.176ZM67.1379 111.762C66.513 111.483 66.076 111.125 65.7793 110.707L64.1485 111.865C64.6838 112.619 65.4245 113.187 66.323 113.588L67.1379 111.762ZM65.7831 110.713C65.4956 110.302 65.3486 109.839 65.3486 109.291H63.3486C63.3486 110.232 63.6119 111.098 64.1446 111.86L65.7831 110.713ZM64.3486 110.291H66.0449V108.291H64.3486V110.291ZM65.0449 109.291C65.0449 110.346 65.4508 111.256 66.2757 111.911L67.5192 110.345C67.2074 110.097 67.0449 109.782 67.0449 109.291H65.0449ZM66.2846 111.918C67.0824 112.537 68.0843 112.796 69.1914 112.796V110.796C68.3883 110.796 67.8609 110.61 67.5103 110.338L66.2846 111.918ZM69.1914 112.796C70.1989 112.796 71.1309 112.593 71.8471 112.045L70.6314 110.457C70.3984 110.635 69.9652 110.796 69.1914 110.796V112.796ZM71.8471 112.045C72.5827 111.482 72.9512 110.686 72.9512 109.766H70.9512C70.9512 110.099 70.8451 110.293 70.6314 110.457L71.8471 112.045ZM72.9512 109.766C72.9512 108.874 72.6218 108.08 71.9037 107.524L70.6802 109.106C70.8411 109.231 70.9512 109.403 70.9512 109.766H72.9512ZM71.9103 107.529C71.3077 107.055 70.3478 106.673 69.1793 106.335L68.6234 108.256C69.7635 108.586 70.3973 108.884 70.6737 109.101L71.9103 107.529Z" fill="#0065A3"/>
<path d="M73 90H4" stroke="#0065A3"/>
</svg>
