<svg width="320" height="1440" viewBox="0 0 320 1440" fill="none" xmlns="http://www.w3.org/2000/svg">
<g clip-path="url(#clip0)">
<path d="M1.52588e-05 0L48 30C96 60 192 120 208 180C224 240 160 300 149.3 360C139 420 181 480 186.7 540C192 600 160 660 165.3 720C171 780 213 840 240 900C267 960 277 1020 261.3 1080C245 1140 203 1200 165.3 1260C128 1320 96 1380 80 1410L64 1440H1.52588e-05V1410C1.52588e-05 1380 1.52588e-05 1320 1.52588e-05 1260C1.52588e-05 1200 1.52588e-05 1140 1.52588e-05 1080C1.52588e-05 1020 1.52588e-05 960 1.52588e-05 900C1.52588e-05 840 1.52588e-05 780 1.52588e-05 720C1.52588e-05 660 1.52588e-05 600 1.52588e-05 540C1.52588e-05 480 1.52588e-05 420 1.52588e-05 360C1.52588e-05 300 1.52588e-05 240 1.52588e-05 180C1.52588e-05 120 1.52588e-05 60 1.52588e-05 30V0Z" fill="#90caf9"/>
</g>
<defs>
<clipPath id="clip0">
<rect width="1440" height="320" fill="white" transform="translate(320) rotate(90)"/>
</clipPath>
</defs>
</svg>
