<svg xmlns="http://www.w3.org/2000/svg" version="1.1" xmlns:xlink="http://www.w3.org/1999/xlink" xmlns:svgjs="http://svgjs.com/svgjs" width="1440" height="560" preserveAspectRatio="none" viewBox="0 0 1440 560"><g mask="url(&quot;#SvgjsMask1029&quot;)" fill="none"><rect width="1440" height="560" x="0" y="0" fill="rgba(5, 117, 233, 1)"></rect><path d="M0,414.816C86.482,425.36,181.455,443.473,255.489,397.548C329.732,351.493,366.853,261.324,385.155,175.894C401.47,99.738,364.225,26.299,351.484,-50.536C339.081,-125.328,355.731,-208.308,311.261,-269.709C265.678,-332.646,184.439,-353.263,111.95,-381.266C33.207,-411.685,-46.041,-454.635,-129.149,-439.841C-215.606,-424.451,-305.253,-377.58,-345.94,-299.758C-385.667,-223.773,-322.429,-132.98,-334.002,-48.022C-345.438,35.933,-436.642,107.153,-412.429,188.35C-388.497,268.606,-291.771,299.469,-218.362,339.778C-149.504,377.588,-77.979,405.309,0,414.816" fill="#034c97"></path><path d="M1440 951.8879999999999C1542.383 954.854 1641.725 1061.996 1733.87 1017.27 1823.816 973.611 1836.667 848.071 1855.983 749.973 1872.261 667.3 1843.909 586.991 1835.091 503.194 1825.846 415.339 1849.723 320.456 1802.899 245.546 1753.663 166.779 1669.556 104.58800000000002 1577.623 91.298 1488.609 78.43 1410.515 142.24099999999999 1327.488 176.81799999999998 1254.222 207.33100000000002 1169.991 221.04399999999998 1119.347 282.152 1069.086 342.798 1078.551 429.366 1055.711 504.748 1027.784 596.917 950.893 680.212 970.146 774.575 990.0840000000001 872.297 1063.56 965.342 1156.872 1000.556 1248.317 1035.065 1342.301 949.058 1440 951.8879999999999" fill="#469ffb"></path></g><defs><mask id="SvgjsMask1029"><rect width="1440" height="560" fill="#ffffff"></rect></mask></defs></svg>