<?xml version="1.0" encoding="UTF-8" standalone="no"?>
<!-- Created with Inkscape (http://www.inkscape.org/) -->

<svg
   width="324.3331mm"
   height="164.90765mm"
   viewBox="0 0 324.3331 164.90765"
   version="1.1"
   id="svg8492"
   inkscape:version="1.1 (c68e22c387, 2021-05-23)"
   sodipodi:docname="SmokeBg.svg"
   xmlns:inkscape="http://www.inkscape.org/namespaces/inkscape"
   xmlns:sodipodi="http://sodipodi.sourceforge.net/DTD/sodipodi-0.dtd"
   xmlns:xlink="http://www.w3.org/1999/xlink"
   xmlns="http://www.w3.org/2000/svg"
   xmlns:svg="http://www.w3.org/2000/svg">
  <sodipodi:namedview
     id="namedview8494"
     pagecolor="#ffffff"
     bordercolor="#666666"
     borderopacity="1.0"
     inkscape:pageshadow="2"
     inkscape:pageopacity="0.0"
     inkscape:pagecheckerboard="0"
     inkscape:document-units="mm"
     showgrid="false"
     inkscape:zoom="0.72337262"
     inkscape:cx="361.50111"
     inkscape:cy="226.02459"
     inkscape:window-width="1920"
     inkscape:window-height="1001"
     inkscape:window-x="-9"
     inkscape:window-y="-9"
     inkscape:window-maximized="1"
     inkscape:current-layer="layer1" />
  <defs
     id="defs8489" />
  <g
     inkscape:label="Sloj 1"
     inkscape:groupmode="layer"
     id="layer1"
     transform="translate(62.679867,-42.27154)">
    <rect
       style="fill:#800000;fill-opacity:0;stroke:#000000;stroke-width:0.31406;stroke-opacity:0"
       id="rect8518"
       width="322.60342"
       height="164.5936"
       x="-61.448277"
       y="42.42857" />
    <path
       style="fill:#90caf9;fill-opacity:1;stroke:#90caf9;stroke-width:0.264583px;stroke-linecap:butt;stroke-linejoin:miter;stroke-opacity:1"
       d="m -61.448275,62.545565 c 0,0 22.477064,22.898631 37.307881,25.237686 22.9448494,3.618767 44.008298,-23.119147 66.934729,-19.385468 19.894399,3.239898 29.588608,34.156787 49.743841,34.381777 24.379364,0.27214 36.722674,-39.221162 61.082514,-40.233995 16.78984,-0.698088 27.69499,21.299094 44.25739,24.140395 21.17783,3.633084 63.64285,-10.24138 63.64285,-10.24138 v 42.42857 c 0,0 -30.45329,19.509 -46.81773,16.82512 -8.13609,-1.33438 -11.31918,-13.65572 -19.38547,-15.36206 -17.61898,-3.72712 -34.29876,13.18095 -52.30419,13.53325 -20.08394,0.39297 -38.806,-13.28699 -58.887926,-12.80173 -22.085859,0.53369 -41.975779,18.81075 -64.008619,17.19089 -29.9523831,-2.2021 -82.66256,-35.84483 -82.66256,-35.84483 z"
       id="path8572"
       sodipodi:nodetypes="caaaaaccaaaaacc" />
    <g
       id="g9473">
      <use
         x="0"
         y="0"
         xlink:href="#rect8518"
         id="use9467"
         width="100%"
         height="100%" />
      <use
         x="0"
         y="0"
         xlink:href="#path8572"
         id="use9469"
         width="100%"
         height="100%" />
    </g>
  </g>
</svg>
