<svg width="1565" height="992" viewBox="0 0 1565 992" fill="none" xmlns="http://www.w3.org/2000/svg">
<path d="M211 85C120.11 82.7618 1 185.5 1 185.5V735C1 735 92.874 886.873 191 908.5C327.64 938.616 356.085 719.396 496 720.5C655.504 721.758 659.584 975.926 819 970.5C941.797 966.32 965.298 793.724 1087.5 806.5C1198.82 818.139 1198.26 969.604 1308.5 989C1411.53 1007.13 1564 908.5 1564 908.5V229.5C1564 229.5 1406.78 -1.12607 1257.5 1.00002C1126.07 2.87182 1107.37 181.318 976 185.5C872.818 188.785 834.72 86.7625 731.5 85C602.885 82.8039 563.243 244.613 435.5 229.5C331.958 217.251 315.232 87.5667 211 85Z" fill="#90CAF9" stroke="#90CAF9"/>
</svg>
